<svg xmlns="http://www.w3.org/2000/svg" viewBox="0 0 139 139"><title>chatcircle</title><path d="M70,139.5A69.5,69.5,0,1,1,139.5,70,69.5,69.5,0,0,1,70,139.5Zm0-138A68.5,68.5,0,1,0,138.5,70,68.5,68.5,0,0,0,70,1.5Z" transform="translate(-0.5 -0.5)" style="fill:#fff"/><path d="M81.5,75.34a4.33,4.33,0,0,0-4.33,4.32h0A4.33,4.33,0,1,0,81.5,75.34Zm0,7.77a3.45,3.45,0,1,1,3.45-3.45A3.45,3.45,0,0,1,81.5,83.11Z" transform="translate(-0.5 -0.5)" style="fill:#fff"/><path d="M95.09,75.34a4.33,4.33,0,0,0-4.32,4.32v0A4.33,4.33,0,1,0,95.09,75.34Zm0,7.77a3.45,3.45,0,0,1-3.44-3.45h0A3.45,3.45,0,1,1,95.09,83.11Z" transform="translate(-0.5 -0.5)" style="fill:#fff"/><path d="M67.9,75.34a4.33,4.33,0,0,0-4.33,4.32h0A4.33,4.33,0,1,0,67.9,75.34Zm0,7.77a3.45,3.45,0,1,1,3.45-3.45A3.45,3.45,0,0,1,67.9,83.11Z" transform="translate(-0.5 -0.5)" style="fill:#fff"/><path d="M109.07,94.93a31.51,31.51,0,1,0-58.16-7.74L50.63,87A0.44,0.44,0,0,0,50.41,87H50.3L35.12,90.78,39,75.62a0.44,0.44,0,0,0,0-.33A30.63,30.63,0,1,1,94.87,51l0.95,0.45A31.51,31.51,0,1,0,38,75.57L34.08,91.3a0.44,0.44,0,0,0,.32.54h0.22l15.73-3.93,0.88,0.46a31.51,31.51,0,0,0,45.51,18.9l15.73,3.93h0.22a0.44,0.44,0,0,0,.32-0.54ZM96.78,106.35H96.67a0.44,0.44,0,0,0-.22.05,30.68,30.68,0,1,1,11.68-11.76,0.44,0.44,0,0,0,0,.33L112,110.14Z" transform="translate(-0.5 -0.5)" style="fill:#fff"/></svg>