<svg id="white_svg_1px" xmlns="http://www.w3.org/2000/svg" viewBox="0 0 140 140"><defs><style>.cls-1{fill:#fff;}</style></defs><title>coins_pound</title><g id="svg_1px" data-name="svg 1px"><path class="cls-1" d="M105.81,56.64a1.7,1.7,0,0,0,1.69-1.7V47.77a1.7,1.7,0,0,0-1.69-1.7h-1.89V38.2a1.7,1.7,0,0,0-1.69-1.7H54.46a1.7,1.7,0,0,0-1.69,1.7v7.18a1.7,1.7,0,0,0,1.69,1.7h2a1.68,1.68,0,0,0-.15.7V51a26.82,26.82,0,1,0-3.08,53.46h50.15a1.79,1.79,0,0,0,1.69-1.87V95.8a1.79,1.79,0,0,0-1.69-1.87h-1.89V85.36h.69a1.79,1.79,0,0,0,1.69-1.87v-7.7h1.89a1.79,1.79,0,0,0,1.69-1.87V67.08a1.79,1.79,0,0,0-1.69-1.87h-4.28V56.64Zm-52-11.27V38.2a.7.7,0,0,1,.69-.7h47.76a.7.7,0,0,1,.69.7v7.88H54.46A.7.7,0,0,1,53.77,45.38Zm3.58,2.39a.7.7,0,0,1,.69-.7h47.76a.7.7,0,0,1,.69.7v7.18a.7.7,0,0,1-.69.7H68.5a26.58,26.58,0,0,0-11.15-4.47ZM27.5,77.68A25.77,25.77,0,1,1,53.27,103.5,25.82,25.82,0,0,1,27.5,77.68ZM104.11,95.8v6.84a.8.8,0,0,1-.69.87H60.49a26.82,26.82,0,0,0,13.25-8.57h29.67A.8.8,0,0,1,104.11,95.8Zm-3.58-1.87h-26a26.77,26.77,0,0,0,4.5-9,.5.5,0,0,0,.49.46h21Zm2.39-10.44a.8.8,0,0,1-.69.87H79.54a.49.49,0,0,0-.4.22,26.81,26.81,0,0,0,.9-6.89c0-.64,0-1.27-.07-1.89h23Zm3.58-16.41v6.84a.8.8,0,0,1-.69.87H79.88a26.65,26.65,0,0,0-2.42-8.57h28.34A.8.8,0,0,1,106.5,67.08Zm-6-1.87H77a27,27,0,0,0-7.11-8.57h30.68Z"/><path class="cls-1" d="M74.07,77.68a20.8,20.8,0,1,0-20.8,20.84A20.84,20.84,0,0,0,74.07,77.68Zm-40.6,0a19.8,19.8,0,1,1,19.8,19.84A19.84,19.84,0,0,1,33.47,77.68Z"/><path class="cls-1" d="M60.93,87.25a.5.5,0,0,0-.5-.5H47a12.8,12.8,0,0,0,2-6.82V78.18h5.47a.5.5,0,0,0,0-1H49V71.7c0-3,2.19-5.48,4.87-5.48s4.87,2.46,4.87,5.48a.5.5,0,0,0,1,0c0-3.57-2.63-6.48-5.87-6.48S48,68.12,48,71.7v5.48H44.91a.5.5,0,0,0,0,1H48v1.75a11.81,11.81,0,0,1-2,6.56l-.32.48a.5.5,0,0,0,.42.78H60.43A.5.5,0,0,0,60.93,87.25Z"/><path class="cls-1" d="M70,139.5A69.5,69.5,0,1,1,139.5,70,69.58,69.58,0,0,1,70,139.5Zm0-138A68.5,68.5,0,1,0,138.5,70,68.58,68.58,0,0,0,70,1.5Z"/></g></svg>