<svg id="svg_2px" data-name="svg 2px" xmlns="http://www.w3.org/2000/svg" viewBox="0 0 140 140"><defs><style>.cls-1{fill:#00008f;}</style></defs><title>check</title><path class="cls-1" d="M102.65,41.74a6.6,6.6,0,0,0-5-1.72,6.69,6.69,0,0,0-4.72,2.55h0L61.22,82.7,47.1,64.33a6.68,6.68,0,0,0-4.73-2.59,6.61,6.61,0,0,0-5,1.73,7.33,7.33,0,0,0-.74,9.9l17.9,23.39a8.57,8.57,0,0,0,13.45,0l35.46-45A7.34,7.34,0,0,0,102.65,41.74Zm-.82,8.7-35.46,45a6.57,6.57,0,0,1-10.31,0L38.16,72.13a5.31,5.31,0,0,1,.52-7.18,4.62,4.62,0,0,1,3.13-1.23l.39,0a4.7,4.7,0,0,1,3.32,1.82l14.9,19.38a1,1,0,0,0,.79.39h0a1,1,0,0,0,.78-.38L94.48,43.82A4.71,4.71,0,0,1,97.8,42a4.63,4.63,0,0,1,3.5,1.21A5.32,5.32,0,0,1,101.83,50.44Z"/><path class="cls-1" d="M70,140a70,70,0,1,1,70-70A70.08,70.08,0,0,1,70,140ZM70,2a68,68,0,1,0,68,68A68.08,68.08,0,0,0,70,2Z"/></svg>