<svg id="svg_1px" data-name="svg 1px" xmlns="http://www.w3.org/2000/svg" viewBox="0 0 96 96"><defs><style>.cls-1{fill:#fff;}</style></defs><title>danger</title><path class="cls-1" d="M87,72.41,51.43,9.53a3.92,3.92,0,0,0-6.86,0L9,72.41a4.09,4.09,0,0,0,0,4.11,3.91,3.91,0,0,0,3.4,2H83.53a3.91,3.91,0,0,0,3.4-2A4.09,4.09,0,0,0,87,72.41ZM86.07,76a2.92,2.92,0,0,1-2.54,1.48H12.47A2.92,2.92,0,0,1,9.93,76a3.1,3.1,0,0,1,0-3.12L45.44,10a2.92,2.92,0,0,1,5.12,0L86.09,72.9A3.1,3.1,0,0,1,86.07,76Z"/><path class="cls-1" d="M47.54,53.6h.92A3.5,3.5,0,0,0,52,50.1V33.56a3.5,3.5,0,0,0-3.5-3.5h-.92a3.5,3.5,0,0,0-3.5,3.5V50.1A3.5,3.5,0,0,0,47.54,53.6Zm-2.5-20a2.5,2.5,0,0,1,2.5-2.5h.92a2.5,2.5,0,0,1,2.5,2.5V50.1a2.5,2.5,0,0,1-2.5,2.5h-.92A2.5,2.5,0,0,1,45,50.1Z"/><path class="cls-1" d="M48,58.53a5.25,5.25,0,1,0,5.12,5.24A5.19,5.19,0,0,0,48,58.53ZM48,68a4.25,4.25,0,1,1,4.12-4.24A4.19,4.19,0,0,1,48,68Z"/></svg>