<?xml version="1.0" encoding="utf-8"?>
<!-- Generator: Adobe Illustrator 21.1.0, SVG Export Plug-In . SVG Version: 6.00 Build 0)  -->
<svg version="1.1" xmlns="http://www.w3.org/2000/svg" xmlns:xlink="http://www.w3.org/1999/xlink" x="0px" y="0px"
	 viewBox="0 0 140 140" style="enable-background:new 0 0 140 140;" xml:space="preserve">
<style type="text/css">
	.st0{display:none;}
	.st1{display:inline;fill:#00008F;}
	.st2{display:inline;fill:none;stroke:#CBCBCB;stroke-width:0.2;stroke-miterlimit:10;}
	.st3{display:inline;}
	.st4{fill:none;stroke:#CBCBCB;stroke-width:0.2;stroke-linecap:round;stroke-miterlimit:10;}
	.st5{display:inline;fill:none;stroke:#CBCBCB;stroke-width:0.2;stroke-linecap:round;stroke-miterlimit:10;}
	.st6{fill:none;stroke:#00008F;stroke-width:2;stroke-linecap:round;stroke-linejoin:round;stroke-miterlimit:10;}
	.st7{display:inline;fill:none;stroke:#00008F;stroke-width:2;stroke-linecap:round;stroke-linejoin:round;stroke-miterlimit:10;}
	.st8{fill:#00008F;}
	.st9{display:inline;fill:none;stroke:#00008F;stroke-width:2;stroke-linecap:round;stroke-linejoin:round;}
	.st10{fill:none;}
	
		.st11{display:inline;fill:none;stroke:#00008F;stroke-width:1.9219;stroke-linecap:round;stroke-linejoin:round;stroke-miterlimit:10;}
	.st12{fill:none;stroke:#FFFFFF;stroke-linecap:round;stroke-linejoin:round;stroke-miterlimit:10;}
	.st13{display:inline;fill:none;stroke:#FFFFFF;stroke-linecap:round;stroke-linejoin:round;stroke-miterlimit:10;}
	.st14{display:inline;fill:none;stroke:#FFFFFF;stroke-linecap:round;stroke-linejoin:round;}
	.st15{fill:#FFFFFF;}
	.st16{display:inline;fill:#FFFFFF;}
	.st17{fill:none;stroke:#FFFFFF;stroke-miterlimit:10;}
</style>
<g id="bg" class="st0">
	<rect x="22" y="22" class="st1" width="96" height="96"/>
</g>
<g id="grid" class="st0">
	<path class="st2" d="M104,108H36c-2.2,0-4-1.8-4-4V36c0-2.2,1.8-4,4-4h68c2.2,0,4,1.8,4,4v68C108,106.2,106.2,108,104,108z"/>
	<path class="st2" d="M110,102H30c-2.2,0-4-1.8-4-4V42c0-2.2,1.8-4,4-4h80c2.2,0,4,1.8,4,4v56C114,100.2,112.2,102,110,102z"/>
	<path class="st2" d="M98,114H42c-2.2,0-4-1.8-4-4V30c0-2.2,1.8-4,4-4h56c2.2,0,4,1.8,4,4v80C102,112.2,100.2,114,98,114z"/>
	<circle class="st2" cx="70" cy="70" r="20"/>
	<g class="st3">
		<line class="st4" x1="22" y1="22" x2="118" y2="118"/>
	</g>
	<g class="st3">
		<line class="st4" x1="118" y1="22" x2="22" y2="118"/>
	</g>
	<line class="st5" x1="22" y1="70" x2="118" y2="70"/>
	<line class="st5" x1="70" y1="22" x2="70" y2="118"/>
</g>
<g id="blue_x5F_stroke_x5F_2px" class="st0">
	<g id="circle" class="st3">
		<circle class="st6" cx="70" cy="70" r="69"/>
	</g>
	<circle class="st7" cx="70" cy="40.7" r="5.8"/>
	<path class="st7" d="M94.2,100.5H75c0.9-1.1,1.4-2.5,1.4-4c0-2.7-1.7-5-4-6V48.9c0-1.3-1.1-2.4-2.4-2.4h0c-1.3,0-2.4,1.1-2.4,2.4
		v41.6c-2.4,1-4,3.3-4,6c0,1.5,0.5,2.9,1.4,4H45.8c-1.3,0-2.4,1.1-2.4,2.4s1.1,2.4,2.4,2.4h48.3c1.3,0,2.4-1.1,2.4-2.4
		S95.5,100.5,94.2,100.5z"/>
	<g class="st3">
		<line class="st6" x1="45" y1="46.1" x2="63.6" y2="42.1"/>
		<line class="st6" x1="76.4" y1="39.3" x2="95.2" y2="34.8"/>
	</g>
	<g class="st3">
		<polyline class="st6" points="40.8,65.8 50.6,45.1 59.1,65.8 		"/>
		<path class="st6" d="M60.9,67c0,6.1-4.9,11-11,11s-11-4.9-11-11H60.9z"/>
	</g>
	<g class="st3">
		<polyline class="st6" points="80.8,57 90.6,36.3 99.1,57 		"/>
		<path class="st6" d="M100.9,58.2c0,6.1-4.9,11-11,11c-6.1,0-11-4.9-11-11H100.9z"/>
	</g>
</g>
<g id="white_x5F_stroke_x5F_1px" class="st0">
	<g id="circle_-_copie" class="st3">
	</g>
	<circle class="st13" cx="70" cy="70" r="69"/>
	<circle class="st13" cx="70" cy="40.7" r="5.8"/>
	<path class="st13" d="M94.2,100.5H75c0.9-1.1,1.4-2.5,1.4-4c0-2.7-1.7-5-4-6V48.9c0-1.3-1.1-2.4-2.4-2.4h0c-1.3,0-2.4,1.1-2.4,2.4
		v41.6c-2.4,1-4,3.3-4,6c0,1.5,0.5,2.9,1.4,4H45.8c-1.3,0-2.4,1.1-2.4,2.4s1.1,2.4,2.4,2.4h48.3c1.3,0,2.4-1.1,2.4-2.4
		S95.5,100.5,94.2,100.5z"/>
	<g class="st3">
		<line class="st12" x1="45" y1="46.1" x2="63.6" y2="42.1"/>
		<line class="st12" x1="76.4" y1="39.3" x2="95.2" y2="34.8"/>
	</g>
	<g class="st3">
		<polyline class="st12" points="40.8,65.8 50.6,45.1 59.1,65.8 		"/>
		<path class="st12" d="M60.9,67c0,6.1-4.9,11-11,11s-11-4.9-11-11H60.9z"/>
	</g>
	<g class="st3">
		<polyline class="st12" points="80.8,57 90.6,36.3 99.1,57 		"/>
		<path class="st12" d="M100.9,58.2c0,6.1-4.9,11-11,11c-6.1,0-11-4.9-11-11H100.9z"/>
	</g>
</g>
<g id="white_x5F_svg_x5F_1px" class="st0">
	<path class="st16" d="M70,0.5C31.7,0.5,0.5,31.7,0.5,70s31.2,69.5,69.5,69.5s69.5-31.2,69.5-69.5S108.3,0.5,70,0.5z M70,138.5
		c-37.8,0-68.5-30.7-68.5-68.5S32.2,1.5,70,1.5s68.5,30.7,68.5,68.5S107.8,138.5,70,138.5z"/>
	<g class="st3">
		<path class="st15" d="M94.2,100H76c0.6-1.1,1-2.3,1-3.5c0-2.7-1.6-5.2-4-6.3V48.9c0-0.9-0.4-1.7-1-2.2c2.6-0.8,4.5-3.2,4.5-6.1
			c0-0.3,0-0.6-0.1-0.9c0,0,0.1,0,0.2,0c0,0,0.1,0,0.1,0l13.4-3.2l-9.5,20.2c-0.1,0.2,0,0.5,0.2,0.7c0.3,0.1,0.5,0,0.7-0.2l9.3-19.7
			l8.1,19.6c0.1,0.2,0.3,0.3,0.5,0.3c0.1,0,0.1,0,0.2,0c0.3-0.1,0.4-0.4,0.3-0.7l-8.4-20.5l4.2-1c0.3-0.1,0.4-0.3,0.4-0.6
			c-0.1-0.3-0.3-0.4-0.6-0.4l-18.8,4.4c-0.1,0-0.2,0.1-0.2,0.1c-0.8-2.6-3.2-4.6-6.1-4.6c-3.5,0-6.3,2.8-6.3,6.3
			c0,0.3,0,0.6,0.1,0.9c-0.1,0-0.2,0-0.3,0l-18.6,4c-0.3,0.1-0.4,0.3-0.4,0.6c0.1,0.2,0.3,0.4,0.5,0.4c0,0,0.1,0,0.1,0l4.7-1
			l-9.4,20c-0.1,0.2,0,0.5,0.2,0.7c0.2,0.1,0.5,0,0.7-0.2l9.3-19.7L58.6,66c0.1,0.2,0.3,0.3,0.5,0.3c0.1,0,0.1,0,0.2,0
			c0.3-0.1,0.4-0.4,0.3-0.7l-8.4-20.3l12.5-2.7c0.1,0,0.2-0.1,0.2-0.1c0.6,2,2.2,3.7,4.2,4.3c-0.6,0.5-1,1.3-1,2.2v41.2
			c-2.5,1.1-4,3.6-4,6.3c0,1.3,0.3,2.5,1,3.5H45.8c-1.6,0-2.9,1.3-2.9,2.9s1.3,2.9,2.9,2.9h48.3c1.6,0,2.9-1.3,2.9-2.9
			S95.8,100,94.2,100z M64.7,40.7c0-2.9,2.4-5.3,5.3-5.3s5.3,2.4,5.3,5.3S72.9,46,70,46S64.7,43.6,64.7,40.7z M94.2,104.8H45.8
			c-1.1,0-1.9-0.9-1.9-1.9s0.9-1.9,1.9-1.9H65c0.2,0,0.4-0.1,0.5-0.3c0.1-0.2,0.1-0.4-0.1-0.5c-0.9-1.1-1.3-2.4-1.3-3.7
			c0-2.4,1.5-4.6,3.7-5.5c0.2-0.1,0.3-0.3,0.3-0.5V48.9c0-1.1,0.9-1.9,1.9-1.9s1.9,0.9,1.9,1.9v41.6c0,0.2,0.1,0.4,0.3,0.5
			c2.3,0.9,3.7,3.1,3.7,5.5c0,1.4-0.5,2.6-1.3,3.7c-0.1,0.1-0.1,0.4-0.1,0.5c0.1,0.2,0.3,0.3,0.5,0.3h19.1c1.1,0,1.9,0.9,1.9,1.9
			S95.2,104.8,94.2,104.8z"/>
		<path class="st15" d="M61.4,67c0-0.3-0.2-0.5-0.5-0.5H39c-0.3,0-0.5,0.2-0.5,0.5c0,6.3,5.1,11.5,11.5,11.5S61.4,73.3,61.4,67z
			 M39.5,67.5h20.9c-0.3,5.5-4.8,10-10.4,10S39.8,73.1,39.5,67.5z"/>
		<path class="st15" d="M100.9,57.7H79c-0.3,0-0.5,0.2-0.5,0.5c0,6.3,5.1,11.5,11.5,11.5s11.5-5.1,11.5-11.5
			C101.4,57.9,101.2,57.7,100.9,57.7z M90,68.7c-5.6,0-10.2-4.4-10.4-10h20.9C100.2,64.2,95.6,68.7,90,68.7z"/>
	</g>
</g>
<g id="blue_x5F_svg__x5F_2px">
	<path class="st8" d="M70,0C31.4,0,0,31.4,0,70s31.4,70,70,70s70-31.4,70-70S108.6,0,70,0z M70,138c-37.5,0-68-30.5-68-68
		S32.5,2,70,2s68,30.5,68,68S107.5,138,70,138z"/>
	<g>
		<path class="st8" d="M100.9,57.2h-0.9c0-0.2,0-0.4,0-0.6l-8.2-20l3.6-0.9c0.5-0.1,0.9-0.7,0.7-1.2c-0.1-0.5-0.7-0.9-1.2-0.7
			l-18.6,4.4c-1-2.6-3.5-4.4-6.4-4.4c-3.8,0-6.8,3.1-6.8,6.8c0,0.2,0,0.3,0,0.5l-18.4,4c-0.5,0.1-0.9,0.7-0.8,1.2
			c0.1,0.5,0.5,0.8,1,0.8c0.1,0,0.1,0,0.2,0l3.7-0.8l-9,19.1c-0.1,0.2-0.1,0.4-0.1,0.6H39c-0.6,0-1,0.4-1,1c0,6.6,5.4,12,12,12
			s12-5.4,12-12c0-0.6-0.4-1-1-1h-0.9c0-0.2,0-0.4,0-0.6l-8.1-19.8l11.7-2.6c0.7,1.7,2,3.1,3.6,3.8c-0.4,0.6-0.7,1.3-0.7,2v40.9
			c-2.5,1.3-4,3.8-4,6.6c0,1,0.2,2.1,0.6,3H45.8c-1.9,0-3.4,1.5-3.4,3.4s1.5,3.4,3.4,3.4h48.3c1.9,0,3.4-1.5,3.4-3.4
			s-1.5-3.4-3.4-3.4H76.8c0.4-0.9,0.6-2,0.6-3c0-2.8-1.6-5.3-4-6.6V48.9c0-0.7-0.2-1.4-0.7-2c2.4-1.1,4.1-3.5,4.1-6.3
			c0-0.2,0-0.3,0-0.5L89,37.3l-9.1,19.2c-0.1,0.2-0.1,0.4-0.1,0.6H79c-0.6,0-1,0.4-1,1c0,6.6,5.4,12,12,12s12-5.4,12-12
			C101.9,57.7,101.5,57.2,100.9,57.2z M50,77c-5.2,0-9.4-3.9-9.9-9h19.8C59.4,73,55.1,77,50,77z M41.9,66l8.7-18.4L58.1,66H41.9z
			 M75.4,96.5c0,1.2-0.4,2.4-1.2,3.4c-0.2,0.3-0.3,0.7-0.1,1.1c0.2,0.3,0.5,0.6,0.9,0.6h19.1c0.8,0,1.4,0.6,1.4,1.4
			s-0.6,1.4-1.4,1.4H45.8c-0.8,0-1.4-0.6-1.4-1.4s0.6-1.4,1.4-1.4H65c0.4,0,0.7-0.2,0.9-0.6s0.1-0.8-0.1-1.1c-0.8-1-1.2-2.2-1.2-3.4
			c0-2.2,1.3-4.2,3.4-5c0.4-0.2,0.6-0.5,0.6-0.9V48.9c0-0.8,0.6-1.4,1.4-1.4s1.4,0.6,1.4,1.4v41.6c0,0.4,0.2,0.8,0.6,0.9
			C74.1,92.2,75.4,94.2,75.4,96.5z M70,45.5c-2.7,0-4.8-2.2-4.8-4.8s2.2-4.8,4.8-4.8c2.7,0,4.8,2.2,4.8,4.8S72.7,45.5,70,45.5z
			 M90.5,38.8l7.6,18.4H81.9L90.5,38.8z M90,68.2c-5.2,0-9.4-3.9-9.9-9h19.8C99.4,64.2,95.1,68.2,90,68.2z"/>
	</g>
</g>
</svg>
