<svg id="svg_1px" data-name="svg 1px" xmlns="http://www.w3.org/2000/svg" viewBox="0 0 96 96"><defs><style>.cls-1{fill:#fff;}</style></defs><title>pin_locator</title><path class="cls-1" d="M66.64,17.76a27.35,27.35,0,0,0-21-7.16A26.86,26.86,0,0,0,26.36,21.21a28.32,28.32,0,0,0-5.42,22.2,25.15,25.15,0,0,0,3,8.24L46.21,85.6a2.17,2.17,0,0,0,1.77.9h0a2.18,2.18,0,0,0,1.79-.92L72.06,51.63A26.91,26.91,0,0,0,75.5,37.92,27.46,27.46,0,0,0,66.64,17.76Zm4.57,33.35L48.95,85a1.18,1.18,0,0,1-1,.49h0A1.17,1.17,0,0,1,47,85L24.78,51.13a24.14,24.14,0,0,1-2.85-7.89,27.31,27.31,0,0,1,5.23-21.41A25.87,25.87,0,0,1,45.67,11.6q1.18-.1,2.34-.1A26.47,26.47,0,0,1,74.5,37.92,25.91,25.91,0,0,1,71.21,51.11Z"/><path class="cls-1" d="M48,25.73A12.22,12.22,0,1,0,60.24,38,12.24,12.24,0,0,0,48,25.73Zm0,23.44A11.22,11.22,0,1,1,59.24,38,11.24,11.24,0,0,1,48,49.17Z"/></svg>