<svg id="white_svg_1px" xmlns="http://www.w3.org/2000/svg" viewBox="0 0 140 140"><defs><style>.cls-1{fill:#fff;}</style></defs><title>garage_white_circle</title><path class="cls-1" d="M70,.5A69.5,69.5,0,1,0,139.5,70,69.58,69.58,0,0,0,70,.5Zm0,138A68.5,68.5,0,1,1,138.5,70,68.58,68.58,0,0,1,70,138.5Z"/><path class="cls-1" d="M88.61,92.34a3,3,0,1,0,3,3A3,3,0,0,0,88.61,92.34Zm0,5a2,2,0,1,1,2-2A2,2,0,0,1,88.61,97.34Z"/><path class="cls-1" d="M51.33,90.18a3.25,3.25,0,1,0,3.25,3.25A3.25,3.25,0,0,0,51.33,90.18Zm0,5.5a2.25,2.25,0,1,1,2.25-2.25A2.25,2.25,0,0,1,51.33,95.68Z"/><path class="cls-1" d="M103.4,90.77s0,0,0,0v-7a4.36,4.36,0,0,0-3.47-4.32L89.43,76.6l-6.8-6.31c-4.17-3.95-7.19-4.74-10.71-4.74H61a16.31,16.31,0,0,0-3.14-28.1.5.5,0,0,0-.7.46V50.33H45.5V37.91a.5.5,0,0,0-.7-.46,16.32,16.32,0,0,0-.3,29.78V91a.5.5,0,0,0,0,.13v4.7a6.84,6.84,0,0,0,13.64.73H81.47a7.24,7.24,0,0,0,14.29-.08.49.49,0,0,0,.26.08h6.49A2.49,2.49,0,0,0,105,94.08v-1A2.49,2.49,0,0,0,103.4,90.77Zm-1-7.07v1.49a5.07,5.07,0,0,1-3.1-1.6,12.78,12.78,0,0,1-2.13-3.91l2.54.67A3.37,3.37,0,0,1,102.41,83.69ZM59.54,66.55H71.92c3.35,0,6.07.73,10,4.47l6.9,6.4a.5.5,0,0,0,.21.12l7,1.85a.48.48,0,0,0,0,.14,14.23,14.23,0,0,0,2.49,4.73,6.11,6.11,0,0,0,3.85,2v4.39h-8a.49.49,0,0,0-.24.07,7.23,7.23,0,0,0-11.09,0,.49.49,0,0,0-.28-.1H67.66V79.09h16a.5.5,0,0,0,.2,0l0,0a.5.5,0,0,0,.14-.1h0l0-.06a.33.33,0,0,0,.08-.2.47.47,0,0,0,0-.07h0a.49.49,0,0,0,0-.11.51.51,0,0,0,0-.08l0-.07a.5.5,0,0,0-.07-.09h0L78.19,73a10.8,10.8,0,0,0-7.28-2.82H58.38a.49.49,0,0,0-.22.06v-3c.46-.21.9-.45,1.33-.7Zm-1.38,24V90a.49.49,0,0,0,.06-.23V79.09h8.43V90.59ZM70.9,71.14a9.8,9.8,0,0,1,6.61,2.56l4.83,4.39H67.66V71.14Zm-4.25,6.94H58.23v-.57a.49.49,0,0,0-.06-.23v-6.2a.49.49,0,0,0,.22.06h8.28ZM57.16,95.83a5.84,5.84,0,0,1-11.68,0V91.25a.5.5,0,0,0,0-.13V66.91a.5.5,0,0,0-.3-.46,15.32,15.32,0,0,1-.7-27.76V50.83a.5.5,0,0,0,.5.5H57.66a.5.5,0,0,0,.5-.5V38.7a15.32,15.32,0,0,1-.7,27.76.5.5,0,0,0-.3.46V91.12a.51.51,0,0,0,0,.05Zm1-.27v-4H82.41a7.2,7.2,0,0,0-1.05,3.74c0,.08,0,.15,0,.23Zm30.44,6a6.25,6.25,0,1,1,6.25-6.25A6.26,6.26,0,0,1,88.61,101.59ZM104,94.08a1.49,1.49,0,0,1-1.49,1.49H96a.49.49,0,0,0-.18,0c0-.09,0-.17,0-.26a7.2,7.2,0,0,0-1.05-3.74h7.71A1.49,1.49,0,0,1,104,93.09Z"/><path class="cls-1" d="M72.92,82.06H71.33a.5.5,0,0,0,0,1h1.59a.5.5,0,0,0,0-1Z"/></svg>